<?xml version="1.0" encoding="utf-8"?>
<!-- Generator: Adobe Illustrator 22.1.0, SVG Export Plug-In . SVG Version: 6.00 Build 0)  -->
<svg version="1.1" id="Layer_1" xmlns="http://www.w3.org/2000/svg" xmlns:xlink="http://www.w3.org/1999/xlink" x="0px" y="0px"
	 viewBox="0 0 100 100" style="enable-background:new 0 0 100 100;" xml:space="preserve">
<style type="text/css">
	.st0{fill:none;stroke:#C9A063;stroke-miterlimit:10;}
</style>
<path class="st0" d="M57.1,59.7c0,0,9.7-2.1,16.9,4.5"/>
<path class="st0" d="M13.4,86.7c0,0,14.6-1.2,26.9-10.7c0,0-20.1-7.1-21.8-20.5c-1.6-13.4,6.3-21.4,6.3-21.4s11.6-9.2,23.6-10.8
	c12.1-1.6,22.5-10,22.5-10S81.3,25.4,81.2,40c-0.1,14.7,3,21-3.5,34.2c-6.5,13.2-23.4,9.8-23.4,9.8L40.2,76c0,0,17.4-9.6,26.1-34.2
	c0,0,4.6-16.5,4.6-28.5"/>
<path class="st0" d="M55.4,31.3c0,0,9.1,9.8,6.9,19.8"/>
<path class="st0" d="M34.8,39.3c0,0,13.2,6.1,13.9,30.1"/>
</svg>
